<svg width="24" height="30" viewBox="0 0 24 30" fill="none" xmlns="http://www.w3.org/2000/svg">
<rect x="0.5" y="0.5" width="23" height="29" rx="1.5" stroke="#223975"/>
<path d="M5.15517 7C6.25974 7 7.15517 6.10457 7.15517 5C7.15517 3.89543 6.25974 3 5.15517 3C4.0506 3 3.15517 3.89543 3.15517 5C3.15517 6.10457 4.0506 7 5.15517 7Z" fill="#223975"/>
<path d="M9.77586 5H19.7759H9.77586Z" fill="#223975"/>
<path d="M9.77586 5H19.7759" stroke="#223975" stroke-width="2" stroke-miterlimit="10" stroke-linecap="round" stroke-linejoin="round"/>
<path d="M5.15517 17C6.25974 17 7.15517 16.1046 7.15517 15C7.15517 13.8954 6.25974 13 5.15517 13C4.0506 13 3.15517 13.8954 3.15517 15C3.15517 16.1046 4.0506 17 5.15517 17Z" fill="#223975"/>
<path d="M9.77586 15H19.7759H9.77586Z" fill="#223975"/>
<path d="M9.77586 15H19.7759" stroke="#223975" stroke-width="2" stroke-miterlimit="10" stroke-linecap="round" stroke-linejoin="round"/>
<path d="M5.15517 26C6.25974 26 7.15517 25.1046 7.15517 24C7.15517 22.8954 6.25974 22 5.15517 22C4.0506 22 3.15517 22.8954 3.15517 24C3.15517 25.1046 4.0506 26 5.15517 26Z" fill="#223975"/>
<path d="M9.77586 24H19.7759H9.77586Z" fill="#223975"/>
<path d="M9.77586 24H19.7759" stroke="#223975" stroke-width="2" stroke-miterlimit="10" stroke-linecap="round" stroke-linejoin="round"/>
</svg>
