<svg width="24" height="21" viewBox="0 0 24 21" fill="none" xmlns="http://www.w3.org/2000/svg">
<path d="M22.7143 0H1.28571C0.944836 0.000455803 0.618026 0.166539 0.376988 0.46181C0.13595 0.757081 0.000372084 1.15742 0 1.575V19.425C0.000370952 19.8426 0.135949 20.2429 0.376987 20.5382C0.618025 20.8335 0.944836 20.9995 1.28571 21H22.7143C23.0552 20.9995 23.382 20.8335 23.623 20.5382C23.8641 20.2429 23.9996 19.8426 24 19.425V1.575C23.9996 1.15742 23.864 0.757081 23.623 0.46181C23.382 0.166539 23.0552 0.000455803 22.7143 0ZM0.857143 1.575C0.857287 1.43582 0.902486 1.30238 0.982828 1.20396C1.06317 1.10555 1.17209 1.05018 1.28571 1.05H22.7143C22.8279 1.05018 22.9368 1.10555 23.0172 1.20396C23.0975 1.30238 23.1427 1.43582 23.1429 1.575V3.15H0.857143V1.575ZM23.1429 19.425C23.1427 19.5642 23.0975 19.6976 23.0172 19.796C22.9368 19.8945 22.8279 19.9498 22.7143 19.95H1.28571C1.17209 19.9498 1.06317 19.8945 0.982826 19.796C0.902485 19.6976 0.857286 19.5642 0.857143 19.425V4.2H23.1429V19.425Z" fill="#223975"/>
<path d="M21.8613 1.575H21.8571C21.7431 1.57568 21.6339 1.63174 21.5536 1.73088C21.4733 1.83002 21.4283 1.96416 21.4286 2.10386C21.4288 2.24355 21.4743 2.37741 21.5551 2.47608C21.6358 2.57474 21.7452 2.63015 21.8592 2.63015C21.9733 2.63015 22.0827 2.57474 22.1634 2.47608C22.2441 2.37741 22.2896 2.24355 22.2899 2.10386C22.2902 1.96416 22.2452 1.83002 22.1649 1.73088C22.0845 1.63174 21.9754 1.57568 21.8613 1.575ZM20.1429 1.575H20.1387C20.0246 1.57568 19.9155 1.63174 19.8351 1.73088C19.7548 1.83002 19.7098 1.96416 19.7101 2.10386C19.7104 2.24355 19.7559 2.37741 19.8366 2.47608C19.9173 2.57474 20.0267 2.63015 20.1408 2.63015C20.2548 2.63015 20.3642 2.57474 20.4449 2.47608C20.5257 2.37741 20.5712 2.24355 20.5714 2.10386C20.5717 1.96416 20.5267 1.83002 20.4464 1.73088C20.3661 1.63174 20.2569 1.57568 20.1429 1.575ZM18.4307 1.575H18.4265C18.3124 1.57568 18.2033 1.63174 18.1229 1.73088C18.0426 1.83002 17.9976 1.96416 17.9979 2.10386C17.9982 2.24355 18.0437 2.37741 18.1244 2.47608C18.2051 2.57474 18.3145 2.63015 18.4286 2.63015C18.5426 2.63015 18.652 2.57474 18.7327 2.47608C18.8135 2.37741 18.859 2.24355 18.8592 2.10386C18.8595 1.96416 18.8146 1.83002 18.7342 1.73088C18.6539 1.63174 18.5447 1.57568 18.4307 1.575ZM2.14286 6.3H5.14286C5.25652 6.3 5.36553 6.24468 5.4459 6.14623C5.52628 6.04777 5.57143 5.91424 5.57143 5.775C5.57143 5.63576 5.52628 5.50222 5.4459 5.40376C5.36553 5.30531 5.25652 5.25 5.14286 5.25H2.14286C2.02919 5.25 1.92018 5.30531 1.83981 5.40376C1.75944 5.50222 1.71429 5.63576 1.71429 5.775C1.71429 5.91424 1.75944 6.04777 1.83981 6.14623C1.92018 6.24468 2.02919 6.3 2.14286 6.3ZM2.14286 8.4H5.14286C5.25652 8.4 5.36553 8.34468 5.4459 8.24623C5.52628 8.14777 5.57143 8.01423 5.57143 7.875C5.57143 7.73576 5.52628 7.60222 5.4459 7.50376C5.36553 7.40531 5.25652 7.35 5.14286 7.35H2.14286C2.02919 7.35 1.92018 7.40531 1.83981 7.50376C1.75944 7.60222 1.71429 7.73576 1.71429 7.875C1.71429 8.01423 1.75944 8.14777 1.83981 8.24623C1.92018 8.34468 2.02919 8.4 2.14286 8.4ZM2.14286 10.5H5.14286C5.25652 10.5 5.36553 10.4447 5.4459 10.3462C5.52628 10.2478 5.57143 10.1142 5.57143 9.975C5.57143 9.83576 5.52628 9.70222 5.4459 9.60376C5.36553 9.50531 5.25652 9.45 5.14286 9.45H2.14286C2.02919 9.45 1.92018 9.50531 1.83981 9.60376C1.75944 9.70222 1.71429 9.83576 1.71429 9.975C1.71429 10.1142 1.75944 10.2478 1.83981 10.3462C1.92018 10.4447 2.02919 10.5 2.14286 10.5ZM2.14286 12.6H5.14286C5.25652 12.6 5.36553 12.5447 5.4459 12.4462C5.52628 12.3478 5.57143 12.2142 5.57143 12.075C5.57143 11.9358 5.52628 11.8022 5.4459 11.7038C5.36553 11.6053 5.25652 11.55 5.14286 11.55H2.14286C2.02919 11.55 1.92018 11.6053 1.83981 11.7038C1.75944 11.8022 1.71429 11.9358 1.71429 12.075C1.71429 12.2142 1.75944 12.3478 1.83981 12.4462C1.92018 12.5447 2.02919 12.6 2.14286 12.6ZM15 11.55H18.7795C18.8423 11.55 18.9044 11.5331 18.9613 11.5005C19.0183 11.4679 19.0686 11.4203 19.1088 11.3611C19.1491 11.3019 19.1782 11.2327 19.1941 11.1582C19.21 11.0837 19.2123 11.0058 19.2009 10.9301C19.0207 9.74591 18.5661 8.65024 17.8914 7.77389L18.2681 6.825H20.1429C20.2565 6.825 20.3655 6.76968 20.4459 6.67123C20.5263 6.57277 20.5714 6.43923 20.5714 6.3C20.5714 6.16076 20.5263 6.02722 20.4459 5.92876C20.3655 5.83031 20.2565 5.775 20.1429 5.775H18C17.9196 5.77498 17.8408 5.80267 17.7727 5.85489C17.7045 5.90711 17.6497 5.98176 17.6145 6.07031L17.2289 7.04151C16.5953 6.45422 15.8587 6.05612 15.0774 5.87885C15.0156 5.86488 14.9521 5.86775 14.8913 5.88724C14.8305 5.90674 14.7739 5.94239 14.7256 5.99166C14.6773 6.04094 14.6385 6.10263 14.6118 6.17235C14.5852 6.24208 14.5714 6.31814 14.5714 6.39513V11.025C14.5714 11.1642 14.6166 11.2978 14.697 11.3962C14.7773 11.4947 14.8863 11.55 15 11.55ZM15.4286 7.06545C16.086 7.32156 16.6838 7.76712 17.1716 8.36474C17.6595 8.96235 18.0232 9.69458 18.2323 10.5H15.4286V7.06545ZM21.8571 6.825H21.8613C21.9754 6.82432 22.0845 6.76825 22.1649 6.66911C22.2452 6.56997 22.2902 6.43584 22.2899 6.29614C22.2896 6.15644 22.2441 6.02258 22.1634 5.92392C22.0827 5.82525 21.9733 5.76985 21.8592 5.76985C21.7452 5.76985 21.6358 5.82525 21.5551 5.92392C21.4743 6.02258 21.4288 6.15644 21.4286 6.29614C21.4283 6.43584 21.4733 6.56997 21.5536 6.66911C21.6339 6.76825 21.7431 6.82432 21.8571 6.825Z" fill="#223975"/>
<path d="M21.8571 7.35H20.5714C20.4578 7.35 20.3488 7.40532 20.2684 7.50377C20.188 7.60223 20.1429 7.73577 20.1429 7.875C20.1429 8.01424 20.188 8.14778 20.2684 8.24624C20.3488 8.34469 20.4578 8.4 20.5714 8.4H21.8571C21.9708 8.4 22.0798 8.34469 22.1602 8.24624C22.2406 8.14778 22.2857 8.01424 22.2857 7.875C22.2857 7.73577 22.2406 7.60223 22.1602 7.50377C22.0798 7.40532 21.9708 7.35 21.8571 7.35ZM10.1016 16.0453L9.59327 17.325H7.71849C7.60482 17.325 7.49581 17.3803 7.41544 17.4788C7.33507 17.5772 7.28991 17.7108 7.28991 17.85C7.28991 17.9892 7.33507 18.1228 7.41544 18.2212C7.49581 18.3197 7.60482 18.375 7.71849 18.375H9.86134C9.94174 18.375 10.0205 18.3473 10.0887 18.2951C10.1568 18.2429 10.2116 18.1683 10.2468 18.0797L10.7544 16.802C11.4361 17.5387 12.2652 18.0405 13.1571 18.2561C14.049 18.4716 14.9716 18.3932 15.8306 18.0289C16.6896 17.6646 17.4543 17.0274 18.0464 16.1825C18.6386 15.3376 19.037 14.3152 19.2009 13.2199C19.2123 13.1442 19.21 13.0663 19.1941 12.9918C19.1782 12.9173 19.1491 12.8481 19.1088 12.7889C19.0686 12.7297 19.0183 12.6821 18.9613 12.6495C18.9044 12.6169 18.8423 12.6 18.7795 12.6H13.7143V6.39514C13.7143 6.31815 13.7005 6.24209 13.6739 6.17236C13.6472 6.10263 13.6084 6.04094 13.5601 5.99167C13.5118 5.9424 13.4552 5.90675 13.3944 5.88725C13.3336 5.86775 13.2701 5.86489 13.2083 5.87885C12.3342 6.07558 11.5167 6.54676 10.8358 7.24633C10.1549 7.94591 9.63375 8.84994 9.32339 9.87007C9.01304 10.8902 8.92406 11.9915 9.06516 13.0664C9.20626 14.1412 9.5726 15.1529 10.1284 16.0024C10.1188 16.0161 10.1098 16.0304 10.1016 16.0453ZM12.8571 7.06467V13.125C12.8572 13.2642 12.9023 13.3978 12.9827 13.4962C13.0631 13.5947 13.1721 13.65 13.2857 13.65H18.2329C18.0118 14.511 17.6132 15.2876 17.0756 15.9049C16.538 16.5222 15.8796 16.9594 15.1639 17.1742C14.4483 17.389 13.6995 17.3741 12.9899 17.1312C12.2802 16.8882 11.6337 16.4252 11.1127 15.787C10.5917 15.1487 10.2138 14.3567 10.0154 13.4874C9.81704 12.6181 9.80494 11.7009 9.98028 10.8242C10.1556 9.94748 10.5125 9.14096 11.0164 8.48243C11.5203 7.8239 12.1543 7.33561 12.8571 7.06467ZM6.0042 18.375C6.11786 18.375 6.22687 18.3197 6.30725 18.2212C6.38762 18.1228 6.43277 17.9892 6.43277 17.85C6.43277 17.7108 6.38762 17.5772 6.30725 17.4788C6.22687 17.3803 6.11786 17.325 6.0042 17.325H6C5.88634 17.3257 5.77755 17.3817 5.69757 17.4806C5.61759 17.5795 5.57297 17.7133 5.57353 17.8526C5.57409 17.9918 5.61977 18.1251 5.70054 18.2231C5.78131 18.321 5.89054 18.3757 6.0042 18.375Z" fill="#223975"/>
<path d="M6.0042 16.8H7.28991C7.40358 16.8 7.51259 16.7447 7.59296 16.6462C7.67333 16.5478 7.71849 16.4142 7.71849 16.275C7.71849 16.1358 7.67333 16.0022 7.59296 15.9038C7.51259 15.8053 7.40358 15.75 7.28991 15.75H6.0042C5.89054 15.75 5.78153 15.8053 5.70115 15.9038C5.62078 16.0022 5.57563 16.1358 5.57563 16.275C5.57563 16.4142 5.62078 16.5478 5.70115 16.6462C5.78153 16.7447 5.89054 16.8 6.0042 16.8Z" fill="#223975"/>
</svg>
