<svg width="30" height="30" viewBox="0 0 30 30" fill="none" xmlns="http://www.w3.org/2000/svg">
<rect width="30" height="30" rx="5" fill="#525252"/>
<path d="M9 19.8501V19.3594C9 17.4627 10.5869 15.925 12.5444 15.925C14.5019 15.925 16.0887 17.4627 16.0887 19.3594V19.8501" stroke="#D9D9D9" stroke-linecap="round" stroke-linejoin="round"/>
<path d="M12.5444 15.925C13.6629 15.925 14.5697 15.0464 14.5697 13.9625C14.5697 12.8786 13.6629 12 12.5444 12C11.4258 12 10.519 12.8786 10.519 13.9625C10.519 15.0464 11.4258 15.925 12.5444 15.925Z" stroke="#D9D9D9" stroke-linecap="round" stroke-linejoin="round"/>
<path d="M17.4909 14.0818L17.8355 12.2773L20.9933 12.8805L20.6487 14.6849M17.4909 14.0818L16.3202 20.2105C16.2974 20.3302 16.323 20.454 16.3914 20.5548L17.5619 22.2779L19.285 21.1074C19.3857 21.039 19.4552 20.9334 19.478 20.8137L20.6487 14.6849M17.4909 14.0818L20.6487 14.6849" stroke="#D9D9D9" stroke-linecap="round" stroke-linejoin="round"/>
<circle cx="15" cy="15" r="8.5" stroke="#D9D9D9"/>
</svg>
