<svg width="24" height="27" viewBox="0 0 24 27" fill="none" xmlns="http://www.w3.org/2000/svg">
<path d="M22.6666 8.12259L14.6667 1.03008C13.9333 0.36673 12.9839 0 12 0C11.0161 0 10.0668 0.36673 9.33339 1.03008L1.33345 8.12259C0.909944 8.50563 0.571989 8.97552 0.342086 9.50097C0.112184 10.0264 -0.00439005 10.5954 0.000126391 11.1699V22.9548C0.000126391 24.0277 0.421551 25.0566 1.17169 25.8152C1.92183 26.5738 2.93924 27 4.0001 27H20C21.0608 27 22.0783 26.5738 22.8284 25.8152C23.5785 25.0566 24 24.0277 24 22.9548V11.1565C24.0026 10.5842 23.8851 10.0178 23.6552 9.49482C23.4254 8.97183 23.0884 8.50412 22.6666 8.12259ZM14.6667 24.3032H9.33339V17.5613C9.33339 17.2037 9.47387 16.8607 9.72392 16.6078C9.97396 16.355 10.3131 16.2129 10.6667 16.2129H13.3334C13.687 16.2129 14.0261 16.355 14.2762 16.6078C14.5262 16.8607 14.6667 17.2037 14.6667 17.5613V24.3032ZM21.3333 22.9548C21.3333 23.3125 21.1928 23.6554 20.9428 23.9083C20.6927 24.1612 20.3536 24.3032 20 24.3032H17.3333V17.5613C17.3333 16.4885 16.9119 15.4595 16.1618 14.7009C15.4116 13.9423 14.3942 13.5161 13.3334 13.5161H10.6667C9.60586 13.5161 8.58845 13.9423 7.83831 14.7009C7.08817 15.4595 6.66675 16.4885 6.66675 17.5613V24.3032H4.0001C3.64648 24.3032 3.30734 24.1612 3.0573 23.9083C2.80725 23.6554 2.66677 23.3125 2.66677 22.9548V11.1565C2.66701 10.965 2.70756 10.7758 2.78573 10.6014C2.86389 10.4271 2.97788 10.2715 3.1201 10.1452L11.12 3.06614C11.3634 2.84997 11.6762 2.73075 12 2.73075C12.3239 2.73075 12.6367 2.84997 12.88 3.06614L20.88 10.1452C21.0222 10.2715 21.1362 10.4271 21.2143 10.6014C21.2925 10.7758 21.3331 10.965 21.3333 11.1565V22.9548Z" fill="#223975"/>
</svg>
