<svg width="25" height="24" viewBox="0 0 25 24" fill="none" xmlns="http://www.w3.org/2000/svg">
<path d="M11.3857 0.0297308C5.63915 0.0297308 0.964508 4.69747 0.964508 10.4355C0.964508 16.1736 5.63915 20.8413 11.3857 20.8413C13.1424 20.8413 14.8693 20.4251 16.3283 19.6224C16.4452 19.7628 16.5747 19.8922 16.7154 20.0089L19.6929 22.9819C19.9678 23.2908 20.3031 23.5404 20.6781 23.7152C21.0531 23.8901 21.4599 23.9865 21.8736 23.9987C22.2873 24.0109 22.6991 23.9385 23.0838 23.7859C23.4684 23.6334 23.8178 23.404 24.1105 23.1118C24.4031 22.8196 24.6329 22.4707 24.7856 22.0866C24.9384 21.7025 25.0109 21.2913 24.9987 20.8782C24.9865 20.4651 24.8899 20.0589 24.7148 19.6845C24.5397 19.31 24.2898 18.9752 23.9804 18.7007L21.003 15.7276C20.8579 15.5827 20.6983 15.4532 20.5266 15.3411C21.3305 13.8843 21.8367 12.1896 21.8367 10.4058C21.8367 4.66774 17.162 0 11.4155 0L11.3857 0.0297308ZM11.3857 3.00282C15.5244 3.00282 18.8294 6.30294 18.8294 10.4355C18.8294 12.3978 18.1148 14.2113 16.8643 15.5492C16.8345 15.579 16.8047 15.6087 16.7749 15.6384C16.6343 15.7551 16.5047 15.8845 16.3879 16.0249C15.0778 17.2142 13.2913 17.898 11.3559 17.898C7.21722 17.898 3.91221 14.5978 3.91221 10.4653C3.91221 6.33267 7.21722 3.03255 11.3559 3.03255L11.3857 3.00282Z" fill="#7C7C7C"/>
</svg>
