<svg width="24" height="30" viewBox="0 0 24 30" fill="none" xmlns="http://www.w3.org/2000/svg">
<path d="M12 16.1416C12.9807 16.1401 13.9467 15.9113 14.8166 15.4744C15.6864 15.0375 16.4346 14.4053 16.9981 13.6311C17.0079 13.6184 17.0226 13.6137 17.0325 13.6011L17.0439 13.5774C17.8186 12.4889 18.1928 11.1814 18.1068 9.86382C18.0208 8.54619 17.4797 7.29432 16.5697 6.30804C15.6597 5.32176 14.4334 4.65794 13.0864 4.42255C11.7395 4.18715 10.3496 4.39375 9.13871 5.00936C7.92777 5.62497 6.96557 6.61411 6.40571 7.81887C5.84585 9.02363 5.72061 10.3746 6.04998 11.656C6.37934 12.9375 7.14433 14.0755 8.22282 14.8886C9.30132 15.7016 10.6311 16.1428 12 16.1416ZM16.4939 10.2284C16.4932 10.8424 16.3565 11.4491 16.0928 12.0079L12.8186 9.81474V5.97316C13.8496 6.15768 14.7813 6.68401 15.4524 7.46108C16.1236 8.23815 16.492 9.21706 16.4939 10.2284ZM11.1814 5.97316V10.2284C11.1817 10.3557 11.2138 10.481 11.2751 10.5938C11.3364 10.7065 11.425 10.8032 11.5334 10.8758L15.158 13.3058C14.659 13.7838 14.0505 14.1421 13.3816 14.3517C12.7128 14.5614 12.0022 14.6166 11.3071 14.513C10.6121 14.4093 9.95202 14.1496 9.38008 13.7548C8.80815 13.36 8.34036 12.8412 8.01439 12.2401C7.68843 11.639 7.5134 10.9725 7.50342 10.2943C7.49344 9.61602 7.64878 8.94498 7.95692 8.33523C8.26506 7.72547 8.7174 7.19405 9.27748 6.78377C9.83756 6.37349 10.4897 6.09583 11.1814 5.97316ZM4.86876 19.5363C4.86876 19.3269 4.955 19.1261 5.10851 18.9781C5.26201 18.83 5.47022 18.7468 5.68731 18.7468H12C12.2171 18.7468 12.4253 18.83 12.5788 18.9781C12.7323 19.1261 12.8186 19.3269 12.8186 19.5363C12.8186 19.7457 12.7323 19.9465 12.5788 20.0946C12.4253 20.2426 12.2171 20.3258 12 20.3258H5.68731C5.57982 20.3258 5.47338 20.3054 5.37407 20.2657C5.27475 20.226 5.18452 20.1679 5.10851 20.0946C5.0325 20.0212 4.9722 19.9342 4.93107 19.8384C4.88993 19.7427 4.86876 19.64 4.86876 19.5363ZM19.1312 22.3784C19.1312 22.5878 19.045 22.7886 18.8915 22.9367C18.738 23.0847 18.5298 23.1679 18.3127 23.1679H5.68731C5.47022 23.1679 5.26201 23.0847 5.10851 22.9367C4.955 22.7886 4.86876 22.5878 4.86876 22.3784C4.86876 22.169 4.955 21.9682 5.10851 21.8202C5.26201 21.6721 5.47022 21.5889 5.68731 21.5889H18.3127C18.5287 21.5889 18.7359 21.6712 18.8892 21.8179C19.0425 21.9646 19.1295 22.1638 19.1312 22.3721V22.3784ZM19.1312 25.2205C19.1312 25.4299 19.045 25.6307 18.8915 25.7788C18.738 25.9268 18.5298 26.01 18.3127 26.01H5.68731C5.47022 26.01 5.26201 25.9268 5.10851 25.7788C4.955 25.6307 4.86876 25.4299 4.86876 25.2205C4.86876 25.0111 4.955 24.8103 5.10851 24.6623C5.26201 24.5142 5.47022 24.4311 5.68731 24.4311H18.3127C18.5275 24.431 18.7338 24.5125 18.8869 24.6578C19.04 24.8031 19.1278 25.0007 19.1312 25.2079V25.2205ZM23.9362 5.19316C23.8948 5.0964 23.8342 5.00842 23.7577 4.93421L18.9004 0.235263C18.8249 0.160192 18.734 0.101052 18.6336 0.061579C18.534 0.0212615 18.4272 0.000333418 18.3192 0H2.45566C1.80438 0 1.17977 0.249529 0.719246 0.693695C0.25872 1.13786 0 1.74028 0 2.36842V27.6316C0 28.2597 0.25872 28.8621 0.719246 29.3063C1.17977 29.7505 1.80438 30 2.45566 30H21.5443C22.1956 30 22.8202 29.7505 23.2808 29.3063C23.7413 28.8621 24 28.2597 24 27.6316V5.49474C24.0003 5.39106 23.9786 5.28841 23.9362 5.19316ZM19.1378 2.7L21.2104 4.70526H19.9563C19.7392 4.70526 19.531 4.62209 19.3775 4.47403C19.224 4.32598 19.1378 4.12517 19.1378 3.91579V2.7ZM21.5443 28.4211H2.45566C2.23857 28.4211 2.03037 28.3379 1.87686 28.1898C1.72335 28.0418 1.63711 27.841 1.63711 27.6316V2.36842C1.63711 2.15904 1.72335 1.95823 1.87686 1.81018C2.03037 1.66212 2.23857 1.57895 2.45566 1.57895H17.5007V3.91579C17.5007 4.54393 17.7594 5.14635 18.2199 5.59052C18.6805 6.03468 19.3051 6.28421 19.9563 6.28421H22.3629V27.6316C22.3629 27.841 22.2766 28.0418 22.1231 28.1898C21.9696 28.3379 21.7614 28.4211 21.5443 28.4211Z" fill="#223975"/>
</svg>
