<svg width="30" height="30" viewBox="0 0 30 30" fill="none" xmlns="http://www.w3.org/2000/svg">
<rect width="30" height="30" rx="5" fill="#C72323"/>
<rect x="8.64286" y="6.5" width="10.5714" height="16.5714" stroke="#D9D9D9"/>
<path d="M8.64286 22.9158V6.70474L16.2143 9.35474V23.8622L8.64286 22.9158Z" stroke="#D9D9D9"/>
<path d="M22.425 14.925C22.6203 14.7297 22.6203 14.4131 22.425 14.2179L19.243 11.0359C19.0477 10.8406 18.7312 10.8406 18.5359 11.0359C18.3406 11.2311 18.3406 11.5477 18.5359 11.743L21.3643 14.5714L18.5359 17.3998C18.3406 17.5951 18.3406 17.9117 18.5359 18.1069C18.7312 18.3022 19.0477 18.3022 19.243 18.1069L22.425 14.925ZM16.7143 15.0714H22.0714V14.0714H16.7143V15.0714Z" fill="#D9D9D9"/>
</svg>
